<svg height="340" node-id="1" sillyvg="true" template-height="340" template-width="416" version="1.1" viewBox="0 0 416 340" width="416" xmlns="http://www.w3.org/2000/svg" xmlns:xlink="http://www.w3.org/1999/xlink"><defs node-id="139"><clipPath id="mask-2" node-id="73"><path d="M 339.95 221.34 L 337.74 221.66 L 328.70 223.60 L 304.95 229.16 L 275.77 278.57 L 307.46 289.45 L 326.74 251.19 L 335.99 231.94 L 339.41 224.00 L 340.09 221.67 L 339.95 221.34 Z" fill="#000000" fill-rule="evenodd" node-id="144" stroke="none" target-height="68.1129" target-width="64.31659" target-x="275.77332" target-y="221.33824"/></clipPath><clipPath id="mask-4" node-id="78"><path d="M 379.69 196.50 L 385.53 211.03 L 389.37 221.78 L 391.65 229.50 L 392.77 234.84 L 393.08 238.39 L 392.81 241.73 L 392.13 244.73 L 391.05 247.46 L 389.58 250.01 L 387.91 252.10 L 386.05 253.79 L 383.93 255.12 L 381.82 255.90 L 379.69 256.17 L 339.95 255.97 L 346.47 290.26 L 302.09 290.26 L 314.16 232.24 L 321.75 228.12 L 329.02 224.85 L 336.02 222.34 L 342.77 220.56 L 349.31 219.45 L 355.67 218.99 L 361.88 219.14 L 366.14 219.21 L 369.63 218.81 L 372.48 218.00 L 374.81 216.85 L 376.69 215.37 L 378.19 213.54 L 379.34 211.31 L 380.13 208.61 L 380.50 205.32 L 380.39 201.33 L 379.69 196.50 Z" fill="#000000" fill-rule="evenodd" node-id="151" stroke="none" target-height="93.753235" target-width="90.98959" target-x="302.09033" target-y="196.50488"/></clipPath><clipPath id="mask-6" node-id="134"><path d="M 186.61 200.46 L 207.71 200.46 L 203.31 218.95 L 191.05 218.95 Z" fill="#000000" fill-rule="evenodd" node-id="158" stroke="none" target-height="18.495224" target-width="21.099258" target-x="186.61104" target-y="200.45552"/></clipPath></defs><g node-id="457"><g node-id="458"><path d="M 1.00 1.00 L 376.32 1.00 L 376.32 259.22 L 1.00 259.22 Z" fill="#ffffff" fill-rule="evenodd" group-id="1,2" id="矩形" node-id="13" stroke="#313b40" stroke-linecap="butt" stroke-width="2" target-height="258.22122" target-width="375.32425" target-x="1" target-y="1"/><g node-id="462"><path d="M 0.74 11.86 L 104.32 11.86 L 104.32 252.07 L 0.74 252.07 Z" fill="#f3faff" fill-opacity="0.5334589" fill-rule="evenodd" group-id="1,2,6" id="矩形" node-id="14" stroke="none" target-height="240.2042" target-width="103.57921" target-x="0.7398515" target-y="11.861936"/></g><g node-id="463"><path d="M 14.06 151.24 L 13.79 152.70 L 13.08 153.86 L 12.02 154.65 L 10.73 154.95 L 9.43 154.65 L 8.37 153.86 L 7.67 152.70 L 7.40 151.24 L 7.67 149.78 L 8.37 148.62 L 9.43 147.82 L 10.73 147.53 L 12.02 147.82 L 13.08 148.62 L 13.79 149.78 L 14.06 151.24 Z" fill="#ffc82c" fill-opacity="0.5334589" fill-rule="evenodd" group-id="1,2,7" id="椭圆形" node-id="16" stroke="none" target-height="7.4137115" target-width="6.6586633" target-x="7.398515" target-y="147.53282"/><path d="M 8.73 151.24 L 10.73 152.72 L 12.73 149.76" fill="none" group-id="1,2,7" id="路径-54" node-id="17" stroke="#ffffff" stroke-linecap="butt" stroke-opacity="0.5334589" stroke-width="1" target-height="2.9654846" target-width="3.9951982" target-x="8.7302475" target-y="149.75693"/></g><g node-id="464"><path d="M 14.06 164.58 L 13.79 166.05 L 13.08 167.21 L 12.02 168.00 L 10.73 168.29 L 9.43 168.00 L 8.37 167.21 L 7.67 166.05 L 7.40 164.58 L 7.67 163.12 L 8.37 161.96 L 9.43 161.17 L 10.73 160.88 L 12.02 161.17 L 13.08 161.96 L 13.79 163.12 L 14.06 164.58 Z" fill="#ff3b30" fill-opacity="0.5334589" fill-rule="evenodd" group-id="1,2,8" id="椭圆形" node-id="19" stroke="none" target-height="7.4137115" target-width="6.6586633" target-x="7.398515" target-y="160.8775"/><path d="M 8.73 164.58 L 10.73 166.07 L 12.73 163.10" fill="none" group-id="1,2,8" id="路径-54" node-id="20" stroke="#ffffff" stroke-linecap="butt" stroke-opacity="0.5334589" stroke-width="1" target-height="2.9654846" target-width="3.9951982" target-x="8.7302475" target-y="163.10161"/></g><g node-id="465"><path d="M 14.06 177.93 L 13.79 179.39 L 13.08 180.55 L 12.02 181.34 L 10.73 181.64 L 9.43 181.34 L 8.37 180.55 L 7.67 179.39 L 7.40 177.93 L 7.67 176.47 L 8.37 175.31 L 9.43 174.51 L 10.73 174.22 L 12.02 174.51 L 13.08 175.31 L 13.79 176.47 L 14.06 177.93 Z" fill="#13ce66" fill-opacity="0.5334589" fill-rule="evenodd" group-id="1,2,9" id="椭圆形" node-id="22" stroke="none" target-height="7.4137115" target-width="6.6586633" target-x="7.398515" target-y="174.22218"/><path d="M 8.73 177.93 L 10.73 179.41 L 12.73 176.45" fill="none" group-id="1,2,9" id="路径-54" node-id="23" stroke="#ffffff" stroke-linecap="butt" stroke-opacity="0.5334589" stroke-width="1" target-height="2.9654846" target-width="3.9951982" target-x="8.7302475" target-y="176.44629"/></g><g node-id="466"><path d="M 14.06 192.76 L 13.79 194.22 L 13.08 195.38 L 12.02 196.17 L 10.73 196.46 L 9.43 196.17 L 8.37 195.38 L 7.67 194.22 L 7.40 192.76 L 7.67 191.29 L 8.37 190.14 L 9.43 189.34 L 10.73 189.05 L 12.02 189.34 L 13.08 190.14 L 13.79 191.29 L 14.06 192.76 Z" fill="#0092ff" fill-opacity="0.5334589" fill-rule="evenodd" group-id="1,2,10" id="椭圆形" node-id="25" stroke="none" target-height="7.4137115" target-width="6.6586633" target-x="7.398515" target-y="189.04959"/><path d="M 8.73 192.76 L 10.73 194.24 L 12.73 191.27" fill="none" group-id="1,2,10" id="路径-54" node-id="26" stroke="#ffffff" stroke-linecap="butt" stroke-opacity="0.5334589" stroke-width="1" target-height="2.9654846" target-width="3.9951982" target-x="8.7302475" target-y="191.2737"/></g><g node-id="467"><path d="M 10.36 67.46 L 92.48 67.46 L 92.48 73.40 L 10.36 73.40 Z" fill="#74c4ff" fill-opacity="0.5334589" fill-rule="evenodd" group-id="1,2,11" id="矩形" node-id="27" stroke="none" target-height="5.930969" target-width="82.12352" target-x="10.357921" target-y="67.46476"/></g><g node-id="468"><path d="M 10.36 37.81 L 92.48 37.81 L 92.48 48.19 L 10.36 48.19 Z" fill="#74c4ff" fill-opacity="0.5334589" fill-rule="evenodd" group-id="1,2,12" id="矩形-copy-23" node-id="28" stroke="none" target-height="10.379192" target-width="82.12352" target-x="10.357921" target-y="37.80992"/></g><g node-id="469"><path d="M 10.36 77.84 L 92.48 77.84 L 92.48 83.77 L 10.36 83.77 Z" fill="#74c4ff" fill-opacity="0.5334589" fill-rule="evenodd" group-id="1,2,13" id="矩形-copy-18" node-id="29" stroke="none" target-height="5.930969" target-width="82.12352" target-x="10.357921" target-y="77.84395"/></g><g node-id="470"><path d="M 10.36 88.22 L 92.48 88.22 L 92.48 94.15 L 10.36 94.15 Z" fill="#74c4ff" fill-opacity="0.5334589" fill-rule="evenodd" group-id="1,2,14" id="矩形-copy-19" node-id="30" stroke="none" target-height="5.930969" target-width="82.12352" target-x="10.357921" target-y="88.223145"/></g><g node-id="471"><path d="M 10.36 98.60 L 92.48 98.60 L 92.48 104.53 L 10.36 104.53 Z" fill="#74c4ff" fill-opacity="0.5334589" fill-rule="evenodd" group-id="1,2,15" id="矩形-copy-20" node-id="31" stroke="none" target-height="5.930969" target-width="82.12352" target-x="10.357921" target-y="98.60234"/></g><g node-id="472"><path d="M 10.36 108.98 L 92.48 108.98 L 92.48 114.91 L 10.36 114.91 Z" fill="#74c4ff" fill-opacity="0.5334589" fill-rule="evenodd" group-id="1,2,16" id="矩形-copy-21" node-id="32" stroke="none" target-height="5.930969" target-width="82.12352" target-x="10.357921" target-y="108.98153"/></g><g node-id="473"><path d="M 10.36 119.36 L 92.48 119.36 L 92.48 125.29 L 10.36 125.29 Z" fill="#74c4ff" fill-opacity="0.5334589" fill-rule="evenodd" group-id="1,2,17" id="矩形-copy-22" node-id="33" stroke="none" target-height="5.930969" target-width="82.12352" target-x="10.357921" target-y="119.360725"/></g><g node-id="474"><path d="M 21.46 147.53 L 34.77 147.53 L 34.77 153.46 L 21.46 153.46 Z" fill="#74c4ff" fill-opacity="0.5334589" fill-rule="evenodd" group-id="1,2,18" id="矩形-copy-24" node-id="34" stroke="none" target-height="5.930969" target-width="13.317329" target-x="21.455692" target-y="147.53282"/></g><g node-id="475"><path d="M 21.46 174.96 L 34.77 174.96 L 34.77 180.89 L 21.46 180.89 Z" fill="#74c4ff" fill-opacity="0.5334589" fill-rule="evenodd" group-id="1,2,19" id="矩形-copy-28" node-id="35" stroke="none" target-height="5.930969" target-width="13.317329" target-x="21.455692" target-y="174.96355"/></g><g node-id="476"><path d="M 21.46 161.62 L 34.77 161.62 L 34.77 167.55 L 21.46 167.55 Z" fill="#74c4ff" fill-opacity="0.5334589" fill-rule="evenodd" group-id="1,2,20" id="矩形-copy-26" node-id="36" stroke="none" target-height="5.930969" target-width="13.317329" target-x="21.455692" target-y="161.61887"/></g><g node-id="477"><path d="M 21.46 189.79 L 34.77 189.79 L 34.77 195.72 L 21.46 195.72 Z" fill="#74c4ff" fill-opacity="0.5334589" fill-rule="evenodd" group-id="1,2,21" id="矩形-copy-30" node-id="37" stroke="none" target-height="5.930969" target-width="13.317329" target-x="21.455692" target-y="189.79097"/></g><g node-id="478"><path d="M 38.47 147.53 L 66.59 147.53 L 66.59 153.46 L 38.47 153.46 Z" fill="#74c4ff" fill-opacity="0.5334589" fill-rule="evenodd" group-id="1,2,22" id="矩形-copy-25" node-id="38" stroke="none" target-height="5.930969" target-width="28.114353" target-x="38.47228" target-y="147.53282"/></g><g node-id="479"><path d="M 38.47 174.96 L 66.59 174.96 L 66.59 180.89 L 38.47 180.89 Z" fill="#74c4ff" fill-opacity="0.5334589" fill-rule="evenodd" group-id="1,2,23" id="矩形-copy-29" node-id="39" stroke="none" target-height="5.930969" target-width="28.114353" target-x="38.47228" target-y="174.96355"/></g><g node-id="480"><path d="M 38.47 161.62 L 83.60 161.62 L 83.60 167.55 L 38.47 167.55 Z" fill="#74c4ff" fill-opacity="0.5334589" fill-rule="evenodd" group-id="1,2,24" id="矩形-copy-27" node-id="40" stroke="none" target-height="5.930969" target-width="45.13094" target-x="38.47228" target-y="161.61887"/></g><g node-id="481"><path d="M 38.47 189.79 L 83.60 189.79 L 83.60 195.72 L 38.47 195.72 Z" fill="#74c4ff" fill-opacity="0.5334589" fill-rule="evenodd" group-id="1,2,25" id="矩形-copy-31" node-id="41" stroke="none" target-height="5.930969" target-width="45.13094" target-x="38.47228" target-y="189.79097"/></g><g node-id="482"><path d="M 45.13 86.00 L 54.75 86.00 L 54.75 96.38 L 45.13 96.38 Z" fill="#0092ff" fill-opacity="0.5334589" fill-rule="evenodd" group-id="1,2,26" id="矩形" node-id="42" stroke="none" target-height="10.379196" target-width="9.618069" target-x="45.13094" target-y="85.99903"/></g><g node-id="483"><path d="M 125.03 40.03 L 170.17 40.03 L 170.17 51.90 L 125.03 51.90 Z" fill="#74c4ff" fill-opacity="0.5334589" fill-rule="evenodd" group-id="1,2,27" id="矩形" node-id="43" stroke="none" target-height="11.861938" target-width="45.130943" target-x="125.034904" target-y="40.03403"/></g><g node-id="484"><path d="M 125.03 61.53 L 170.17 61.53 L 170.17 122.33 L 125.03 122.33 Z" fill="#ffafab" fill-opacity="0.5334589" fill-rule="evenodd" group-id="1,2,28" id="矩形-copy-13" node-id="44" stroke="none" target-height="60.79242" target-width="45.130943" target-x="125.034904" target-y="61.53379"/></g><g node-id="485"><path d="M 125.03 136.41 L 170.17 136.41 L 170.17 149.76 L 125.03 149.76 Z" fill="#ffafab" fill-opacity="0.5334589" fill-rule="evenodd" group-id="1,2,29" id="矩形-copy-14" node-id="45" stroke="none" target-height="13.344681" target-width="45.130943" target-x="125.034904" target-y="136.41226"/></g><g node-id="486"><path d="M 175.34 40.03 L 220.48 40.03 L 220.48 51.90 L 175.34 51.90 Z" fill="#74c4ff" fill-opacity="0.5334589" fill-rule="evenodd" group-id="1,2,30" id="矩形-copy-2" node-id="46" stroke="none" target-height="11.861938" target-width="45.130936" target-x="175.3448" target-y="40.03403"/></g><g node-id="487"><path d="M 175.34 97.12 L 220.48 97.12 L 220.48 149.76 L 175.34 149.76 Z" fill="#ffe088" fill-opacity="0.5334589" fill-rule="evenodd" group-id="1,2,31" id="矩形-copy-15" node-id="47" stroke="none" target-height="52.637344" target-width="45.130936" target-x="175.3448" target-y="97.1196"/></g><g node-id="488"><path d="M 224.91 40.03 L 270.05 40.03 L 270.05 51.90 L 224.91 51.90 Z" fill="#74c4ff" fill-opacity="0.5334589" fill-rule="evenodd" group-id="1,2,32" id="矩形-copy-3" node-id="48" stroke="none" target-height="11.861938" target-width="45.13092" target-x="224.91486" target-y="40.03403"/></g><g node-id="489"><path d="M 224.91 67.46 L 270.05 67.46 L 270.05 167.55 L 224.91 167.55 Z" fill="#abdbff" fill-opacity="0.5334589" fill-rule="evenodd" group-id="1,2,33" id="矩形-copy-16" node-id="49" stroke="none" target-height="100.085075" target-width="45.13092" target-x="224.91486" target-y="67.46476"/></g><g node-id="490"><path d="M 274.48 40.03 L 319.62 40.03 L 319.62 51.90 L 274.48 51.90 Z" fill="#74c4ff" fill-opacity="0.5334589" fill-rule="evenodd" group-id="1,2,34" id="矩形-copy-4" node-id="50" stroke="none" target-height="11.861938" target-width="45.13095" target-x="274.4849" target-y="40.03403"/></g><g node-id="491"><path d="M 274.48 97.12 L 319.62 97.12 L 319.62 154.95 L 274.48 154.95 Z" fill="#ffe088" fill-opacity="0.5334589" fill-rule="evenodd" group-id="1,2,35" id="矩形-copy-17" node-id="51" stroke="none" target-height="57.826935" target-width="45.13095" target-x="274.4849" target-y="97.1196"/></g><g node-id="492"><path d="M 324.79 40.03 L 369.93 40.03 L 369.93 51.90 L 324.79 51.90 Z" fill="#74c4ff" fill-opacity="0.5334589" fill-rule="evenodd" group-id="1,2,36" id="矩形-copy-12" node-id="52" stroke="none" target-height="11.861938" target-width="45.13095" target-x="324.7948" target-y="40.03403"/></g><path d="M 2.22 2.22 L 375.84 2.22 L 375.84 13.34 L 2.22 13.34 Z" fill="#0092ff" fill-rule="evenodd" group-id="1,2" id="矩形" node-id="53" stroke="none" target-height="11.1205635" target-width="373.625" target-x="2.2195544" target-y="2.224113"/><path d="M 17.02 7.78 C 17.02 8.81 16.19 9.64 15.17 9.64 C 14.15 9.64 13.32 8.81 13.32 7.78 C 13.32 6.76 14.15 5.93 15.17 5.93 C 16.19 5.93 17.02 6.76 17.02 7.78 Z" fill="#ffc82c" fill-rule="evenodd" group-id="1,2" id="椭圆形" node-id="54" stroke="none" target-height="3.7068543" target-width="3.6992579" target-x="13.317327" target-y="5.930968"/><path d="M 22.94 7.78 C 22.94 8.81 22.11 9.64 21.09 9.64 C 20.06 9.64 19.24 8.81 19.24 7.78 C 19.24 6.76 20.06 5.93 21.09 5.93 C 22.11 5.93 22.94 6.76 22.94 7.78 Z" fill="#13ce66" fill-rule="evenodd" group-id="1,2" id="椭圆形-copy-9" node-id="55" stroke="none" target-height="3.7068543" target-width="3.699257" target-x="19.23614" target-y="5.930968"/><path d="M 11.84 7.78 C 11.84 8.81 11.01 9.64 9.99 9.64 C 8.97 9.64 8.14 8.81 8.14 7.78 C 8.14 6.76 8.97 5.93 9.99 5.93 C 11.01 5.93 11.84 6.76 11.84 7.78 Z" fill="#ff3b30" fill-rule="evenodd" group-id="1,2" id="椭圆形-copy-10" node-id="56" stroke="none" target-height="3.7068543" target-width="3.699257" target-x="8.138367" target-y="5.930968"/></g><g node-id="459"><path d="M 157.20 253.00 L 176.22 253.00 L 177.63 253.20 L 178.84 253.71 L 179.89 254.52 L 180.71 255.58 L 181.22 256.79 L 181.42 258.20 L 181.42 258.20 L 181.22 259.61 L 180.71 260.82 L 179.89 261.88 L 178.84 262.69 L 177.63 263.20 L 176.22 263.40 L 157.20 263.40 L 155.79 263.20 L 154.58 262.69 L 153.52 261.88 L 152.71 260.82 L 152.20 259.61 L 152.00 258.20 L 152.00 258.20 L 152.20 256.79 L 152.71 255.58 L 153.52 254.52 L 154.58 253.71 L 155.79 253.20 L 157.20 253.00 Z" fill="#b8e1ff" fill-rule="evenodd" group-id="1,3" id="矩形" node-id="58" stroke="none" target-height="10.399994" target-width="29.416153" target-x="152" target-y="253"/><path d="M 232.77 291.40 L 234.07 291.22 L 235.19 290.75 L 236.16 289.99 L 236.92 289.02 L 237.38 287.90 L 237.57 286.60 L 237.38 285.30 L 236.92 284.18 L 236.16 283.21 L 235.19 282.45 L 234.07 281.98 L 232.77 281.80 L 214.52 281.80 L 213.21 281.62 L 212.09 281.15 L 211.12 280.39 L 210.37 279.42 L 209.90 278.30 L 209.72 277.00 L 209.90 275.70 L 210.37 274.58 L 211.12 273.61 L 212.09 272.85 L 213.21 272.38 L 214.52 272.20 L 220.68 272.20 L 221.99 272.02 L 223.10 271.55 L 224.08 270.79 L 224.83 269.82 L 225.30 268.70 L 225.48 267.40 L 225.30 266.10 L 224.83 264.98 L 224.08 264.01 L 223.10 263.25 L 221.99 262.78 L 220.68 262.60 L 199.18 262.60 L 197.88 262.42 L 196.76 261.95 L 195.79 261.19 L 195.03 260.22 L 194.56 259.10 L 194.38 257.80 L 194.56 256.50 L 195.03 255.38 L 195.79 254.41 L 196.76 253.65 L 197.88 253.18 L 199.18 253.00 L 275.20 253.00 L 276.50 253.18 L 277.62 253.65 L 278.59 254.41 L 279.35 255.38 L 279.82 256.50 L 280.00 257.80 L 279.82 259.10 L 279.35 260.22 L 278.59 261.19 L 277.62 261.95 L 276.50 262.42 L 275.20 262.60 L 251.14 262.60 L 249.84 262.78 L 248.72 263.25 L 247.75 264.01 L 246.99 264.98 L 246.53 266.10 L 246.34 267.40 L 246.53 268.70 L 246.99 269.82 L 247.75 270.79 L 248.72 271.55 L 249.84 272.02 L 251.14 272.20 L 275.20 272.20 L 276.50 272.38 L 277.62 272.85 L 278.59 273.61 L 279.35 274.58 L 279.82 275.70 L 280.00 277.00 L 279.82 278.30 L 279.35 279.42 L 278.59 280.39 L 277.62 281.15 L 276.50 281.62 L 275.20 281.80 L 256.81 281.80 L 255.51 281.98 L 254.39 282.45 L 253.42 283.21 L 252.66 284.18 L 252.20 285.30 L 252.01 286.60 L 252.20 287.90 L 252.66 289.02 L 253.42 289.99 L 254.39 290.75 L 255.51 291.22 L 256.81 291.40 L 275.20 291.40 L 276.50 291.58 L 277.62 292.05 L 278.59 292.81 L 279.35 293.78 L 279.82 294.90 L 280.00 296.20 L 279.82 297.50 L 279.35 298.62 L 278.59 299.59 L 277.62 300.35 L 276.50 300.82 L 275.20 301.00 L 180.65 301.00 L 179.35 300.82 L 178.23 300.35 L 177.26 299.59 L 176.50 298.62 L 176.04 297.50 L 175.85 296.20 L 176.04 294.90 L 176.50 293.78 L 177.26 292.81 L 178.23 292.05 L 179.35 291.58 L 180.65 291.40 L 232.77 291.40 Z" fill="#b8e1ff" fill-rule="evenodd" group-id="1,3" id="合并形状" node-id="59" stroke="none" target-height="48" target-width="104.14906" target-x="175.85094" target-y="253"/></g><g node-id="460"><g node-id="493"><g node-id="497"><path d="M 327.12 255.97 L 415.03 255.97 L 415.03 260.15 L 327.12 260.15 Z" fill="#13161a" fill-rule="evenodd" group-id="1,4,37,41" id="矩形" node-id="63" stroke="none" target-height="4.1854095" target-width="87.90164" target-x="327.12433" target-y="255.96785"/><g node-id="503"><path d="M 303.69 260.13 L 274.98 312.87 L 292.06 326.08 L 320.61 260.56 Z" fill="#ffc1c7" fill-rule="evenodd" group-id="1,4,37,41,47" id="路径-9-copy-8" node-id="64" stroke="none" target-height="65.94919" target-width="45.63095" target-x="274.98312" target-y="260.12845"/></g><g node-id="504"><path d="M 257.46 315.45 L 289.63 333.40" fill="none" group-id="1,4,37,41,48" id="路径-17-copy-6" node-id="65" stroke="#13161a" stroke-linecap="butt" stroke-width="1" target-height="17.94992" target-width="32.164734" target-x="257.4638" target-y="315.44788"/></g><g node-id="505"><path d="M 275.36 311.13 L 283.35 315.73 L 295.86 322.50 L 290.29 332.55 L 258.07 314.69 L 260.87 312.88 L 263.66 311.60 L 266.47 310.80 L 269.33 310.45 L 272.29 310.55 L 275.36 311.13 Z" fill="#0092ff" fill-rule="evenodd" group-id="1,4,37,41,49" id="矩形-copy-7" node-id="66" stroke="none" target-height="22.096832" target-width="37.788116" target-x="258.0748" target-y="310.44934"/></g><g node-id="506"><path d="M 275.87 310.21 L 296.39 321.82" fill="none" group-id="1,4,37,41,50" id="路径-16-copy-6" node-id="67" stroke="#13161a" stroke-linecap="butt" stroke-width="1" target-height="11.609924" target-width="20.518738" target-x="275.8739" target-y="310.20822"/></g><g node-id="507"><path d="M 315.39 263.82 L 306.45 323.20 L 327.02 329.77 L 331.44 258.44 Z" fill="#ffc1c7" fill-rule="evenodd" group-id="1,4,37,41,51" id="路径-9-copy-7" node-id="68" stroke="none" target-height="71.32947" target-width="24.986877" target-x="306.45123" target-y="258.44196"/></g><g node-id="508"><path d="M 290.87 331.61 L 327.23 337.48" fill="none" group-id="1,4,37,41,52" id="路径-17-copy-5" node-id="69" stroke="#13161a" stroke-linecap="butt" stroke-width="1" target-height="5.867401" target-width="36.364716" target-x="290.8699" target-y="331.61407"/></g><g node-id="509"><path d="M 306.21 321.44 L 315.29 323.03 L 329.36 325.10 L 327.57 336.45 L 291.18 330.69 L 293.19 328.04 L 295.37 325.88 L 297.74 324.16 L 300.31 322.86 L 303.12 321.95 L 306.21 321.44 Z" fill="#0092ff" fill-rule="evenodd" group-id="1,4,37,41,53" id="矩形-copy-6" node-id="70" stroke="none" target-height="15.016235" target-width="38.17926" target-x="291.18472" target-y="321.4383"/></g><g node-id="510"><path d="M 306.38 320.39 L 329.63 324.29" fill="none" group-id="1,4,37,41,54" id="路径-16-copy-5" node-id="71" stroke="#13161a" stroke-linecap="butt" stroke-width="1" target-height="3.8925781" target-width="23.252472" target-x="306.3775" target-y="320.39435"/></g><g node-id="511"><g node-id="521"><path d="M 339.95 221.34 L 337.74 221.66 L 328.70 223.60 L 304.95 229.16 L 275.77 278.57 L 307.46 289.45 L 326.74 251.19 L 335.99 231.94 L 339.41 224.00 L 340.09 221.67 L 339.95 221.34 Z" fill="#0092ff" fill-rule="evenodd" group-id="1,4,37,41,55,65" node-id="338" stroke="none" target-height="68.1129" target-width="64.31659" target-x="275.77332" target-y="221.33824"/></g><g clip-path="url(#mask-2)" group-id="1,4,37,41,55,66" node-id="341"><path d="M 312.06 231.27 L 311.81 232.98 L 311.20 234.44 L 310.22 235.71 L 308.94 236.70 L 307.48 237.31 L 305.78 237.55 L 304.07 237.31 L 302.61 236.70 L 301.34 235.71 L 300.35 234.44 L 299.74 232.98 L 299.50 231.27 L 299.74 229.57 L 300.35 228.11 L 301.34 226.83 L 302.61 225.85 L 304.07 225.24 L 305.78 225.00 L 307.48 225.24 L 308.94 225.85 L 310.22 226.83 L 311.20 228.11 L 311.81 229.57 L 312.06 231.27 Z" fill="#ffc82c" fill-rule="evenodd" group-id="1,4,37,41,55,66" node-id="343" stroke="none" target-height="12.556244" target-width="12.557404" target-x="299.49808" target-y="224.99579"/></g></g><g node-id="512"><g node-id="523"><path d="M 379.69 196.50 L 385.53 211.03 L 389.37 221.78 L 391.65 229.50 L 392.77 234.84 L 393.08 238.39 L 392.81 241.73 L 392.13 244.73 L 391.05 247.46 L 389.58 250.01 L 387.91 252.10 L 386.05 253.79 L 383.93 255.12 L 381.82 255.90 L 379.69 256.17 L 339.95 255.97 L 346.47 290.26 L 302.09 290.26 L 314.16 232.24 L 321.75 228.12 L 329.02 224.85 L 336.02 222.34 L 342.77 220.56 L 349.31 219.45 L 355.67 218.99 L 361.88 219.14 L 366.14 219.21 L 369.63 218.81 L 372.48 218.00 L 374.81 216.85 L 376.69 215.37 L 378.19 213.54 L 379.34 211.31 L 380.13 208.61 L 380.50 205.32 L 380.39 201.33 L 379.69 196.50 Z" fill="#0092ff" fill-rule="evenodd" group-id="1,4,37,41,56,67" node-id="349" stroke="none" target-height="93.753235" target-width="90.98959" target-x="302.09033" target-y="196.50488"/></g><g clip-path="url(#mask-4)" group-id="1,4,37,41,56,68" node-id="352"><path d="M 324.61 233.37 L 324.36 235.19 L 323.70 236.74 L 322.65 238.10 L 321.29 239.15 L 319.73 239.81 L 317.92 240.06 L 316.10 239.81 L 314.54 239.15 L 313.18 238.10 L 312.13 236.74 L 311.48 235.19 L 311.22 233.37 L 311.48 231.55 L 312.13 229.99 L 313.18 228.63 L 314.54 227.58 L 316.10 226.93 L 317.92 226.67 L 319.73 226.93 L 321.29 227.58 L 322.65 228.63 L 323.70 229.99 L 324.36 231.55 L 324.61 233.37 Z" fill="#ffc82c" fill-rule="evenodd" group-id="1,4,37,41,56,68" node-id="354" stroke="none" target-height="13.393326" target-width="13.394531" target-x="311.21832" target-y="226.66995"/></g></g><g node-id="513"><path d="M 292.48 204.69 L 287.01 204.92 L 283.43 205.51 L 281.21 206.31 L 279.94 207.23 L 279.32 208.25 L 279.22 209.44 L 279.69 210.92 L 280.81 212.58 L 282.40 213.93 L 284.58 214.98 L 287.50 215.69 L 291.36 215.96 L 296.40 215.67 L 292.48 204.69 Z" fill="#ffc1c7" fill-rule="evenodd" group-id="1,4,37,41,57" id="路径-12-copy-7" node-id="82" stroke="none" target-height="11.275955" target-width="17.178925" target-x="279.21927" target-y="204.6855"/></g><g node-id="514"><path d="M 287.66 203.43 L 295.70 216.19" fill="none" group-id="1,4,37,41,58" id="路径-20-copy-5" node-id="83" stroke="#13161a" stroke-linecap="butt" stroke-width="1" target-height="12.758469" target-width="8.037415" target-x="287.66174" target-y="203.43173"/></g><path d="M 339.24 158.00 L 337.91 159.19 L 336.66 160.85 L 335.51 163.09 L 334.48 166.05 L 333.42 171.07 L 330.72 187.29 L 325.04 225.00 L 390.16 219.62 L 386.01 207.90 L 382.58 197.01 L 379.84 186.90 L 377.28 175.89 L 376.04 170.78 L 374.77 166.36 L 373.25 162.29 L 371.57 159.15 L 370.18 157.36 L 368.63 156.04 L 366.90 155.11 L 363.95 154.22 L 360.70 153.69 L 357.11 153.56 L 353.13 153.87 L 348.71 154.68 L 339.24 158.00 Z" fill="#ffc82c" fill-rule="evenodd" group-id="1,4,37,41" id="路径-4-copy" node-id="84" stroke="none" target-height="71.43375" target-width="65.120026" target-x="325.0448" target-y="153.56204"/><path d="M 337.56 178.36 L 333.63 220.21" fill="none" group-id="1,4,37,41" id="路径-46" node-id="85" stroke="#13161a" stroke-linecap="butt" stroke-width="1" target-height="41.854126" target-width="3.9336548" target-x="333.62546" target-y="178.35812"/><path d="M 335.32 165.53 L 321.08 202.36 L 287.60 202.36 L 300.99 223.29 L 329.36 216.48 Z" fill="#ffc82c" fill-rule="evenodd" group-id="1,4,37,41" id="路径-37" node-id="86" stroke="none" target-height="57.758698" target-width="47.71805" target-x="287.59793" target-y="165.53284"/><path d="M 346.64 214.80 L 341.21 215.42 L 337.67 216.26 L 335.51 217.22 L 334.31 218.22 L 333.77 219.28 L 333.75 220.47 L 334.32 221.92 L 335.54 223.44 L 337.27 224.63 L 339.66 225.48 L 342.90 225.91 L 347.23 225.79 L 352.93 224.93 L 346.64 214.80 Z" fill="#ffc1c7" fill-rule="evenodd" group-id="1,4,37,41,59" id="路径-12-copy-5" node-id="87" stroke="none" target-height="11.104889" target-width="19.180878" target-x="333.74637" target-y="214.80429"/><path d="M 345.26 214.20 L 347.68 229.08" fill="none" group-id="1,4,37,41,60" id="路径-20-copy-4" node-id="88" stroke="#13161a" stroke-linecap="butt" stroke-width="1" target-height="14.884399" target-width="2.4128418" target-x="345.26385" target-y="214.2001"/><path d="M 368.58 155.62 L 372.51 158.92 L 375.86 162.47 L 378.68 166.28 L 380.99 170.37 L 382.81 174.77 L 384.40 180.33 L 386.18 188.85 L 388.10 201.24 L 390.16 218.49 L 348.54 230.83 L 345.49 207.39 L 371.65 204.88 L 367.81 185.65 L 365.72 173.58 L 364.81 166.61 L 364.62 163.05 L 364.92 159.90 L 365.53 157.85 L 366.35 156.58 L 367.34 155.87 L 368.58 155.62 Z" fill="#ffc82c" fill-rule="evenodd" group-id="1,4,37,41" id="路径-38" node-id="89" stroke="none" target-height="75.20642" target-width="44.677124" target-x="345.4877" target-y="155.61885"/><path d="M 365.49 176.44 L 366.90 203.01 L 351.83 211.45" fill="none" group-id="1,4,37,41" id="路径-47" node-id="90" stroke="#13161a" stroke-linecap="butt" stroke-width="1" target-height="35.002853" target-width="15.068848" target-x="351.83386" target-y="176.445"/><path d="M 358.43 155.01 L 358.38 155.46 L 357.99 156.66 L 357.36 157.64 L 356.48 158.43 L 355.44 158.98 L 354.31 159.24 L 353.04 159.19 L 351.84 158.80 L 350.87 158.18 L 350.07 157.30 L 349.52 156.26 L 349.27 155.12 L 349.31 153.86 L 349.41 153.42 L 349.44 153.13 L 350.34 148.00 L 350.64 147.25 L 351.17 146.71 L 351.86 146.40 L 352.66 146.38 L 357.79 147.28 L 358.53 147.57 L 359.08 148.10 L 359.39 148.80 L 359.41 149.60 L 358.51 154.73 L 358.43 155.01 Z" fill="#ffc1c7" fill-rule="evenodd" group-id="1,4,37,41,61,69" id="合并形状-copy-6" node-id="92" stroke="none" target-height="12.860626" target-width="10.145325" target-x="349.2663" target-y="146.37665"/><path d="M 349.12 157.00 L 353.38 158.65 L 354.62 158.90 L 355.64 158.82 L 356.50 158.47 L 357.18 157.84 L 357.80 156.67 L 358.33 154.72" fill="none" group-id="1,4,37,41,61" id="路径-11-copy-3" node-id="93" stroke="#13161a" stroke-linecap="butt" stroke-width="1" target-height="4.1804047" target-width="9.20874" target-x="349.12085" target-y="154.71819"/><path d="M 373.54 137.69 L 372.73 140.65 L 371.49 143.28 L 369.82 145.62 L 367.78 147.64 L 365.47 149.26 L 362.86 150.49 L 360.09 151.26 L 357.20 151.53 L 354.14 151.28 L 351.18 150.47 L 348.55 149.23 L 346.21 147.56 L 344.18 145.51 L 342.56 143.20 L 341.33 140.59 L 340.56 137.82 L 340.30 134.93 L 340.55 131.87 L 341.36 128.91 L 342.60 126.28 L 344.27 123.94 L 346.32 121.92 L 348.63 120.30 L 351.23 119.07 L 354.00 118.30 L 356.89 118.03 L 359.95 118.28 L 362.92 119.10 L 365.54 120.33 L 367.88 122.00 L 369.91 124.05 L 371.53 126.36 L 372.76 128.97 L 373.53 131.74 L 373.79 134.63 L 373.54 137.69 Z" fill="#2f2e41" fill-rule="nonzero" group-id="1,4,37,41,61,70" id="椭圆形" node-id="95" stroke="none" target-height="33.493965" target-width="33.496796" target-x="340.29733" target-y="118.033195"/><path d="M 368.94 139.06 L 368.21 141.73 L 367.09 144.09 L 365.59 146.20 L 363.75 148.02 L 361.67 149.48 L 359.32 150.58 L 356.83 151.28 L 354.23 151.51 L 351.47 151.29 L 348.81 150.56 L 346.44 149.44 L 344.33 147.94 L 342.51 146.10 L 341.06 144.02 L 339.95 141.68 L 339.25 139.18 L 339.02 136.58 L 339.24 133.82 L 339.97 131.16 L 341.09 128.79 L 342.59 126.69 L 344.43 124.87 L 346.51 123.41 L 348.86 122.30 L 351.35 121.61 L 353.95 121.37 L 356.71 121.60 L 359.37 122.33 L 361.74 123.44 L 363.84 124.94 L 365.67 126.79 L 367.12 128.87 L 368.23 131.21 L 368.92 133.70 L 369.16 136.31 L 368.94 139.06 Z" fill="#ffc1c7" fill-rule="nonzero" group-id="1,4,37,41,61,70" id="椭圆形" node-id="96" stroke="none" target-height="30.14473" target-width="30.147308" target-x="339.0157" target-y="121.37016"/><path d="M 363.76 147.16 L 361.19 148.63 L 358.54 149.61 L 355.80 150.11 L 353.00 150.14 L 350.29 149.73 L 347.63 148.87 L 345.16 147.57 L 342.92 145.86 L 340.90 143.68 L 342.79 146.12 L 344.98 148.11 L 347.51 149.69 L 350.28 150.79 L 353.18 151.38 L 356.26 151.44 L 358.52 151.12 L 360.65 150.53 L 362.68 149.66 L 364.57 148.53 L 366.29 147.17 L 367.83 145.58 L 369.23 143.69 L 370.36 141.57 L 371.35 138.65 L 371.79 135.73 L 371.70 132.75 L 371.09 129.83 L 369.97 127.09 L 368.32 124.49 L 369.67 127.13 L 370.52 129.82 L 370.89 132.58 L 370.79 135.38 L 370.25 138.07 L 369.26 140.68 L 367.85 143.09 L 366.03 145.24 L 363.76 147.16 Z" fill="#000000" fill-opacity="0.1" fill-rule="nonzero" group-id="1,4,37,41,61,70,73" id="路径" node-id="97" stroke="none" target-height="26.95568" target-width="30.888123" target-x="340.90338" target-y="124.48765"/><path d="M 352.69 139.42 L 353.54 138.44 L 354.33 137.20 L 354.76 136.15 L 354.87 135.20 L 354.61 134.70 L 354.07 134.59 L 353.18 134.96 L 352.29 135.66 L 351.31 136.76 L 351.26 136.84 L 349.38 135.02 L 347.95 132.83 L 346.98 130.41 L 346.48 127.91 L 346.46 125.42 L 346.92 123.17 L 347.73 121.73 L 349.00 120.66 L 350.57 119.92 L 352.42 119.40 L 356.25 118.86 L 359.54 118.52 L 360.66 118.53 L 361.59 118.84 L 362.40 119.44 L 364.78 122.31 L 366.22 123.97 L 368.23 125.65 L 369.21 126.55 L 369.94 127.66 L 370.44 129.00 L 370.80 131.19 L 370.80 133.61 L 370.50 136.03 L 370.03 138.25 L 368.88 141.71 L 367.57 144.07 L 366.20 145.49 L 364.76 146.23 L 363.17 146.38 L 362.00 146.12 L 360.12 145.39 L 358.17 144.38 L 356.09 142.99 L 354.20 141.32 L 352.69 139.42 Z" fill="#2f2e41" fill-rule="nonzero" group-id="1,4,37,41,61,71" id="合并形状" node-id="99" stroke="none" target-height="27.86016" target-width="24.345062" target-x="346.45966" target-y="118.52212"/><path d="M 314.44 230.86 L 302.09 290.26" fill="none" group-id="1,4,37,41" id="路径-31" node-id="101" stroke="#13161a" stroke-linecap="butt" stroke-width="1" target-height="59.40274" target-width="12.346283" target-x="302.09033" target-y="230.85538"/></g><g node-id="498"><g node-id="518"><g node-id="528"><path d="M 390.38 125.02 L 389.81 127.09 L 388.94 128.93 L 387.77 130.57 L 386.34 131.99 L 384.72 133.12 L 382.90 133.98 L 380.96 134.52 L 378.93 134.70 L 376.79 134.53 L 374.72 133.96 L 372.88 133.09 L 371.24 131.93 L 369.82 130.49 L 368.69 128.87 L 367.83 127.05 L 367.29 125.11 L 367.10 123.09 L 367.28 120.95 L 367.85 118.87 L 368.71 117.03 L 369.88 115.40 L 371.32 113.98 L 372.93 112.84 L 374.76 111.98 L 376.70 111.44 L 378.72 111.26 L 380.86 111.43 L 382.94 112.00 L 384.77 112.87 L 386.41 114.04 L 387.83 115.47 L 388.96 117.09 L 389.83 118.91 L 390.36 120.85 L 390.55 122.88 L 390.38 125.02 Z" fill="#2f2e41" fill-rule="nonzero" group-id="1,4,37,42,62,72" id="椭圆形" node-id="105" stroke="none" target-height="23.44629" target-width="23.448273" target-x="367.1022" target-y="111.258606"/><g node-id="530"><g node-id="531"><path d="M 367.47 120.13 L 367.28 120.94 L 367.12 123.08 L 367.32 125.09 L 367.87 127.01 L 368.73 128.82 L 369.87 130.43 L 371.28 131.85 L 372.92 133.01 L 374.75 133.87 L 376.81 134.43 L 378.94 134.61 L 380.95 134.42 L 382.88 133.89 L 384.70 133.04 L 386.31 131.92 L 387.75 130.52 L 388.92 128.90 L 389.79 127.07 L 390.38 125.02 L 390.48 124.19 L 389.81 126.11 L 388.88 127.82 L 387.69 129.33 L 386.26 130.62 L 384.68 131.65 L 382.91 132.42 L 381.05 132.90 L 379.12 133.05 L 377.08 132.88 L 375.11 132.35 L 373.34 131.54 L 371.76 130.46 L 370.36 129.13 L 369.23 127.62 L 368.33 125.91 L 367.73 124.09 L 367.43 122.17 L 367.47 120.13 Z" fill="#000000" fill-opacity="0.1" fill-rule="nonzero" group-id="1,4,37,42,62,72,74,75" id="路径" node-id="107" stroke="none" target-height="14.478935" target-width="23.357513" target-x="367.12106" target-y="120.127754"/></g><path d="M 367.12 118.65 L 367.88 116.06 L 369.18 113.76 L 370.97 111.81 L 373.20 110.29 L 375.71 109.32 L 378.33 108.96 L 380.96 109.19 L 383.52 110.03 L 381.58 109.01 L 379.57 108.38 L 377.47 108.13 L 375.35 108.26 L 373.31 108.77 L 371.31 109.67 L 369.52 110.94 L 368.04 112.44 L 366.86 114.19 L 366.01 116.13 L 365.53 118.18 L 365.42 120.37 L 365.73 122.55 L 366.39 124.54 L 367.41 126.40 L 368.75 128.04 L 370.35 129.41 L 372.25 130.50 L 370.43 129.03 L 368.99 127.32 L 367.90 125.35 L 367.21 123.20 L 366.95 120.99 L 367.12 118.65 Z" fill="#2f2e41" fill-rule="nonzero" group-id="1,4,37,42,62,72,74" id="路径" node-id="108" stroke="none" target-height="22.371185" target-width="18.105927" target-x="365.41882" target-y="108.13228"/><path d="M 379.31 132.20 L 377.93 129.88 L 377.13 127.36 L 376.91 124.73 L 377.31 122.06 L 378.30 119.56 L 379.81 117.39 L 381.77 115.61 L 384.13 114.30 L 382.06 115.03 L 380.24 116.08 L 378.62 117.46 L 377.28 119.09 L 376.26 120.94 L 375.57 123.02 L 375.28 125.19 L 375.38 127.30 L 375.86 129.36 L 376.71 131.30 L 377.88 133.05 L 379.42 134.62 L 381.22 135.87 L 383.14 136.74 L 385.19 137.25 L 387.31 137.38 L 389.40 137.13 L 391.50 136.48 L 389.18 136.82 L 386.95 136.71 L 384.76 136.17 L 382.71 135.22 L 380.91 133.91 L 379.31 132.20 L 379.31 132.20 Z" fill="#2f2e41" fill-rule="nonzero" group-id="1,4,37,42,62,72,74" id="路径" node-id="109" stroke="none" target-height="23.082832" target-width="16.219818" target-x="375.27557" target-y="114.30071"/></g><path d="M 375.75 130.64 L 375.69 127.95 L 376.24 125.36 L 377.35 122.96 L 379.01 120.84 L 381.11 119.15 L 383.49 118.00 L 386.07 117.42 L 388.77 117.45 L 386.61 117.07 L 384.50 117.08 L 382.42 117.48 L 380.45 118.24 L 378.65 119.35 L 377.02 120.81 L 375.70 122.56 L 374.75 124.44 L 374.15 126.47 L 373.93 128.58 L 374.09 130.68 L 374.66 132.80 L 375.61 134.78 L 376.84 136.48 L 378.38 137.94 L 380.16 139.10 L 382.10 139.91 L 384.24 140.38 L 382.06 139.53 L 380.17 138.33 L 378.53 136.78 L 377.22 134.95 L 376.30 132.92 L 375.75 130.64 L 375.75 130.64 Z" fill="#2f2e41" fill-rule="nonzero" group-id="1,4,37,42,62,72" id="路径" node-id="110" stroke="none" target-height="23.31115" target-width="14.838287" target-x="373.93057" target-y="117.06666"/></g></g></g></g><path d="M 191.93 337.23 L 414.09 337.23 L 414.75 337.50 L 415.03 338.16 L 415.03 338.16 L 414.75 338.82 L 414.09 339.09 L 191.93 339.09 L 191.27 338.82 L 191.00 338.16 L 191.00 338.16 L 191.27 337.50 L 191.93 337.23 Z" fill="#13161a" fill-rule="evenodd" group-id="1,4" id="矩形" node-id="111" stroke="none" target-height="1.8645325" target-width="224.02597" target-x="191" target-y="337.2267"/></g><g node-id="461"><g node-id="494"><path d="M 307.14 218.28 L 307.14 230.62 L 401.00 230.62 L 401.00 218.28 Z" fill="#13161a" fill-rule="evenodd" group-id="1,5,38" id="路径-42" node-id="114" stroke="#13161a" stroke-linecap="butt" stroke-width="1" target-height="12.336136" target-width="93.85669" target-x="307.1433" target-y="218.28462"/><path d="M 132.00 218.28 L 132.00 230.44 L 307.14 230.44 L 307.14 218.28 Z" fill="#ffffff" fill-rule="evenodd" group-id="1,5,38" id="路径-43" node-id="115" stroke="#13161a" stroke-linecap="butt" stroke-width="1" target-height="12.155945" target-width="175.14331" target-x="132" target-y="218.28462"/><path d="M 269.43 214.61 L 269.43 218.28 L 308.82 218.28 L 308.82 214.61 Z" fill="#0092ff" fill-rule="evenodd" group-id="1,5,38" id="路径-45" node-id="116" stroke="#13161a" stroke-linecap="butt" stroke-width="1" target-height="3.6712646" target-width="39.38629" target-x="269.43304" target-y="214.61336"/><path d="M 223.34 184.18 L 238.43 218.28 L 271.11 218.28 L 256.02 184.18 Z" fill="#ffffff" fill-rule="evenodd" group-id="1,5,38" id="路径-44" node-id="117" stroke="#13161a" stroke-linecap="butt" stroke-width="1" target-height="34.100388" target-width="47.766357" target-x="223.34268" target-y="184.18423"/><g node-id="499"><path d="M 241.78 199.40 L 241.61 200.20 L 241.17 200.85 L 240.51 201.29 L 239.68 201.45 L 238.86 201.29 L 238.20 200.85 L 237.76 200.20 L 237.59 199.40 L 237.76 198.59 L 238.20 197.94 L 238.86 197.51 L 239.68 197.34 L 240.51 197.51 L 241.17 197.94 L 241.61 198.59 L 241.78 199.40 Z" fill="#0092ff" fill-rule="evenodd" group-id="1,5,38,43" id="椭圆形" node-id="119" stroke="none" target-height="4.1120453" target-width="4.190033" target-x="237.58878" target-y="197.34277"/><path d="M 250.16 199.40 L 249.99 200.20 L 249.55 200.85 L 248.89 201.29 L 248.06 201.45 L 247.24 201.29 L 246.58 200.85 L 246.14 200.20 L 245.97 199.40 L 246.14 198.59 L 246.58 197.94 L 247.24 197.51 L 248.06 197.34 L 248.89 197.51 L 249.55 197.94 L 249.99 198.59 L 250.16 199.40 Z" fill="#ffc82c" fill-rule="evenodd" group-id="1,5,38,43" id="椭圆形-copy-9" node-id="120" stroke="none" target-height="4.1120453" target-width="4.190033" target-x="245.96884" target-y="197.34277"/><path d="M 257.70 199.40 L 257.53 200.20 L 257.09 200.85 L 256.43 201.29 L 255.61 201.45 L 254.78 201.29 L 254.12 200.85 L 253.68 200.20 L 253.51 199.40 L 253.68 198.59 L 254.12 197.94 L 254.78 197.51 L 255.61 197.34 L 256.43 197.51 L 257.09 197.94 L 257.53 198.59 L 257.70 199.40 Z" fill="#13ce66" fill-rule="evenodd" group-id="1,5,38,43" id="椭圆形-copy-10" node-id="121" stroke="none" target-height="4.1120453" target-width="4.190033" target-x="253.5109" target-y="197.34277"/></g></g><g node-id="495"><path d="M 151.54 171.00 L 159.96 177.70 L 159.96 217.88 L 151.54 217.88 Z" fill="#54b6ff" fill-rule="evenodd" group-id="1,5,39" id="矩形-copy-5" node-id="123" stroke="none" target-height="46.87729" target-width="8.42099" target-x="151.5367" target-y="171"/><path d="M 161.64 171.00 L 170.06 177.70 L 170.06 217.88 L 161.64 217.88 Z" fill="#ffdd7b" fill-rule="evenodd" group-id="1,5,39" id="矩形-copy-8" node-id="124" stroke="none" target-height="46.87729" target-width="8.42099" target-x="161.64188" target-y="171"/><path d="M 171.75 171.00 L 180.17 177.70 L 180.17 217.88 L 171.75 217.88 Z" fill="#4ff297" fill-rule="evenodd" group-id="1,5,39" id="矩形-copy-10" node-id="125" stroke="none" target-height="46.87729" target-width="8.420975" target-x="171.74707" target-y="171"/><path d="M 143.12 171.00 L 151.54 171.00 L 151.54 217.88 L 143.12 217.88 Z" fill="#0092ff" fill-rule="evenodd" group-id="1,5,39" id="矩形" node-id="126" stroke="none" target-height="46.87729" target-width="8.42099" target-x="143.1157" target-y="171"/><path d="M 153.22 171.00 L 161.64 171.00 L 161.64 217.88 L 153.22 217.88 Z" fill="#ffc82c" fill-rule="evenodd" group-id="1,5,39" id="矩形-copy-9" node-id="127" stroke="none" target-height="46.87729" target-width="8.42099" target-x="153.22089" target-y="171"/><path d="M 163.33 171.00 L 171.75 171.00 L 171.75 217.88 L 163.33 217.88 Z" fill="#13ce66" fill-rule="evenodd" group-id="1,5,39" id="矩形-copy-11" node-id="128" stroke="none" target-height="46.87729" target-width="8.42099" target-x="163.32608" target-y="171"/></g><g node-id="496"><g node-id="500"><path d="M 195.96 193.08 L 195.20 189.33 L 194.39 186.81 L 193.57 185.21 L 192.76 184.27 L 191.63 183.52 L 190.46 183.11 L 189.23 183.00 L 188.02 183.20 L 186.95 183.69 L 185.99 184.50 L 185.32 185.56 L 184.97 186.68 L 184.94 187.89 L 185.22 189.08 L 185.79 190.16 L 186.70 191.17 L 187.75 191.83 L 189.47 192.41 L 192.10 192.85 L 195.96 193.08 Z" fill="#1fa85c" fill-rule="evenodd" group-id="1,5,40,44" id="椭圆形-copy-11" node-id="130" stroke="none" target-height="10.07663" target-width="11.019516" target-x="184.943" target-y="183.00444"/></g><g node-id="501"><path d="M 208.83 185.45 L 209.49 183.98 L 209.73 182.51 L 209.58 181.01 L 209.05 179.60 L 208.18 178.39 L 206.93 177.35 L 205.44 176.69 L 203.96 176.45 L 202.45 176.60 L 201.01 177.13 L 199.79 177.98 L 198.74 179.22 L 198.19 180.57 L 197.90 182.80 L 198.02 186.26 L 198.77 191.40 L 203.18 189.52 L 206.08 187.92 L 207.85 186.58 L 208.83 185.45 Z" fill="#28b968" fill-rule="evenodd" group-id="1,5,40,45" id="椭圆形" node-id="131" stroke="none" target-height="14.950577" target-width="11.834198" target-x="197.89594" target-y="176.45123"/></g><path d="M 197.16 208.61 L 201.31 202.93 L 203.71 198.87 L 204.87 196.05 L 205.18 194.12 L 204.89 192.03 L 204.08 190.18 L 202.83 188.60 L 201.21 187.38 L 199.31 186.60 L 197.16 186.32 L 195.01 186.60 L 193.11 187.38 L 191.49 188.60 L 190.24 190.18 L 189.43 192.03 L 189.14 194.12 L 189.46 196.05 L 190.61 198.87 L 193.01 202.93 L 197.16 208.61 Z" fill="#13ce66" fill-rule="evenodd" group-id="1,5,40" id="椭圆形" node-id="132" stroke="none" target-height="22.29335" target-width="16.03543" target-x="189.14294" target-y="186.31502"/><path d="M 186.61 200.46 L 207.71 200.46 L 203.31 218.95 L 191.05 218.95 Z" fill="#7c868d" fill-rule="evenodd" group-id="1,5,40,46,63" node-id="450" stroke="none" target-height="18.495224" target-width="21.099258" target-x="186.61104" target-y="200.45552"/><g clip-path="url(#mask-6)" group-id="1,5,40,46,64" node-id="453"><path d="M 203.19 199.03 L 203.19 220.17 L 211.10 206.96 L 209.78 200.46 Z" fill="#4d5761" fill-rule="evenodd" group-id="1,5,40,46,64" node-id="455" stroke="none" target-height="21.137405" target-width="7.912216" target-x="203.18681" target-y="199.03049"/></g></g></g></g></svg>